<svg fill="#8ab300" role="img" viewBox="0 0 24 24" xmlns="http://www.w3.org/2000/svg"><title>C</title><path d="M 504.23548,506.63129 C 503.50787,506.4426 502.49584,506.07253 501.98652,505.80892 500.79434,505.19188 474.33293,490.38368 462.96048,483.96936 459.73545,482.15037 455.20138,479.60797 431.34277,466.24031 423.99397,462.12288 417.35354,458.28966 416.58626,457.72206 415.81898,457.15445 414.78526,456.07086 414.28911,455.31408 412.42233,452.46665 412.54426,456.35808 412.62072,402.06867 l 0.0689,-48.93681 0.84913,-1.79262 c 0.51082,-1.07842 1.36258,-2.29067 2.13789,-3.0427 1.26617,-1.22817 2.33406,-1.83823 45.29944,-25.87861 3.41974,-1.91344 11.69459,-6.55123 18.38854,-10.30619 20.87925,-11.71218 22.451,-12.56726 23.9448,-13.02663 1.86196,-0.5726 5.26749,-0.56055 6.8994,0.0244 1.31899,0.47279 1.25594,0.43876 12.81205,6.91443 8.89771,4.98598 23.75553,13.28457 37.43855,20.91067 5.02047,2.79811 13.17625,7.3482 18.12395,10.1113 4.94771,2.76311 10.90084,6.08406 13.22917,7.37989 4.42886,2.46488 6.92148,4.49279 7.93841,6.45844 1.21986,2.35787 1.18325,0.75773 1.18658,51.87512 0.003,43.67395 -0.0378,48.44234 -0.42358,49.74166 -0.48993,1.65002 -1.90234,3.90162 -3.0568,4.87304 -1.03049,0.8671 0.441,0.0299 -34.88107,19.845 -16.80765,9.42881 -35.02422,19.65164 -40.48125,22.71739 -5.45703,3.06576 -10.58859,5.84429 -11.40347,6.17452 -1.85052,0.74994 -4.6885,0.97866 -6.4559,0.52031 z M 515.21569,471.64196 C 527.98089,470.12959 539.94972,465.052 550.38932,456.72007 553.6471,454.12002 558.02747,449.77995 560.55448,446.64843 562.2576,444.5379 567.07734,437.52797 567.07115,437.17046 567.06715,436.9643 537.08798,420.46247 536.75584,420.48384 536.62318,420.49284 535.97886,421.34835 535.32402,422.386 533.70774,424.94713 529.11686,429.52977 526.32819,431.36569 514.03155,439.46118 499.42536,439.45909 487.16985,431.35969 484.46412,429.57161 480.37231,425.57359 478.45972,422.84918 470.6748,411.7599 470.0132,397.19271 476.75905,385.4033 481.64828,376.85861 490.00996,370.87078 500.0478,368.72616 502.78643,368.14104 509.0913,368.01385 512.04069,368.48421 520.06666,369.76419 527.78584,374.01753 532.85217,379.95154 533.8005,381.06227 534.94805,382.544 535.40229,383.24425 535.929,384.05624 536.3759,384.47836 536.63599,384.40954 536.99381,384.31484 566.24898,367.67062 566.50161,367.41799 566.66074,367.25886 563.72331,362.86851 561.54749,360.01348 559.25163,357.00092 553.61057,351.21644 550.66974,348.85916 540.10154,340.388 528.06676,335.32172 514.55412,333.65556 511.148,333.23557 502.34982,333.23557 498.9437,333.65556 485.76979,335.27995 474.20347,340.05908 463.62183,348.25032 460.59134,350.59621 455.134,356.00494 452.66993,359.09458 444.70077,369.08693 439.63264,380.94317 437.79726,393.88729 437.18326,398.21755 437.17994,406.99184 437.79026,411.48208 440.96935,434.85803 455.24552,454.77686 476.18918,465.05818 488.44352,471.07387 501.48864,473.27782 515.21522,471.65155 z" transform="scale(0.1143) translate(-411.8, -298.5)"/></svg>
